Coordinates
version=1
nRows=19
nColumns=63
inDegrees=yes

Units are S.I. units (second, meters, Newtons, ...)
If the header above contains a line with 'inDegrees', this indicates whether rotational values are in degrees (yes) or radians (no).

endheader
time	pelvis_tilt	pelvis_list	pelvis_rotation	pelvis_tx	pelvis_ty	pelvis_tz	hip_flexion_r	hip_adduction_r	hip_rotation_r	knee_angle_r	knee_angle_r_beta	ankle_angle_r	subtalar_angle_r	mtp_angle_r	hip_flexion_l	hip_adduction_l	hip_rotation_l	knee_angle_l	knee_angle_l_beta	ankle_angle_l	subtalar_angle_l	mtp_angle_l	L5_S1_Flex_Ext	L5_S1_Lat_Bending	L5_S1_axial_rotation	L4_L5_Flex_Ext	L4_L5_Lat_Bending	L4_L5_axial_rotation	L3_L4_Flex_Ext	L3_L4_Lat_Bending	L3_L4_axial_rotation	L2_L3_Flex_Ext	L2_L3_Lat_Bending	L2_L3_axial_rotation	L1_L2_Flex_Ext	L1_L2_Lat_Bending	L1_L2_axial_rotation	L1_T12_Flex_Ext	L1_T12_Lat_Bending	L1_T12_axial_rotation	Abs_r3	Abs_r2	Abs_r1	Abs_t1	Abs_t2	neck_flexion	neck_bending	neck_rotation	arm_flex_r	arm_add_r	arm_rot_r	elbow_flex_r	pro_sup_r	wrist_flex_r	wrist_dev_r	arm_flex_l	arm_add_l	arm_rot_l	elbow_flex_l	pro_sup_l	wrist_flex_l	wrist_dev_l
2.680000	-0.644769	-4.254194	89.036374	0.227848	1.072717	0.431088	13.891680	-0.300433	4.044127	33.057035	0.576954	37.160082	2.873795	0.000000	13.507643	-3.939201	-11.293144	31.947988	0.557598	37.612752	5.825908	0.000000	0.102884	-0.070660	1.889461	0.191067	-0.093978	2.007552	0.169029	-0.171803	2.007552	0.117587	-0.171803	1.653278	0.095538	-0.144090	1.535187	0.058788	-0.109453	1.417096	0.734893	-0.799323	10.508615	0.000000	0.000000	15.766126	-1.623733	-9.160223	17.617943	-9.005883	-37.279173	149.699309	84.414356	28.160271	3.278606	15.583436	-20.097732	-31.900525	148.196849	84.225910	9.866795	14.844721
2.700000	-0.664840	-4.259737	89.400739	0.227265	1.072942	0.431520	13.901925	-0.454221	3.552687	33.096574	0.577644	37.189790	3.044043	0.000000	13.718491	-3.861353	-10.934486	32.129735	0.560770	37.527478	5.898057	0.000000	0.114997	-0.078083	1.820440	0.213562	-0.103851	1.934217	0.188929	-0.189851	1.934217	0.131431	-0.189851	1.592885	0.106787	-0.159227	1.479107	0.065710	-0.120951	1.365330	0.821415	-0.883292	10.124740	0.000000	0.000000	15.520318	-1.374401	-9.462807	17.876826	-9.110016	-37.052975	149.693393	84.473780	27.651889	3.404382	16.527094	-20.095750	-31.384258	148.084812	84.073366	9.402057	15.198920
2.720000	-0.717549	-4.294052	89.670303	0.226867	1.073219	0.431835	13.930740	-0.607717	3.207231	33.111624	0.577907	37.217889	3.154516	0.000000	13.881844	-3.761814	-10.684492	32.221627	0.562373	37.378597	6.015977	0.000000	0.128990	-0.091335	1.761701	0.239548	-0.121476	1.871807	0.211918	-0.222073	1.871807	0.147423	-0.222073	1.541488	0.119780	-0.186251	1.431382	0.073705	-0.141478	1.321276	0.921364	-1.033203	9.798053	0.000000	0.000000	15.384815	-1.090116	-9.775087	18.112682	-9.194976	-36.844940	149.681096	84.627960	27.220054	3.635210	17.356155	-20.134122	-30.967184	148.006911	83.891586	9.083501	15.537094
2.740000	-0.775762	-4.355317	89.846217	0.226585	1.073496	0.432025	13.980055	-0.741436	2.959853	33.111426	0.577903	37.239539	3.240053	0.000000	14.011261	-3.664827	-10.511479	32.262311	0.563084	37.180017	6.141354	0.000000	0.144814	-0.105197	1.713208	0.268934	-0.139912	1.820283	0.237915	-0.255776	1.820283	0.165508	-0.255776	1.499057	0.134474	-0.214517	1.391981	0.082747	-0.162950	1.284906	1.034391	-1.190008	9.528346	0.000000	0.000000	15.350972	-0.804934	-10.049414	18.316179	-9.296231	-36.607523	149.665731	84.810528	26.740282	3.964247	18.000542	-20.187794	-30.670853	147.969650	83.678741	8.855433	15.776850
2.760000	-0.829233	-4.438988	89.964902	0.226358	1.073734	0.432093	14.046694	-0.854702	2.773140	33.107886	0.577842	37.253463	3.312081	0.000000	14.123237	-3.573947	-10.359018	32.281650	0.563421	36.953475	6.241278	0.000000	0.161623	-0.116385	1.664446	0.300150	-0.154792	1.768473	0.265530	-0.282978	1.768473	0.184719	-0.282978	1.456390	0.150083	-0.237332	1.352362	0.092351	-0.180280	1.248334	1.154456	-1.316570	9.257147	0.000000	0.000000	15.415288	-0.526766	-10.148413	18.511518	-9.396215	-36.295738	149.645290	84.952463	26.304319	4.460226	18.422252	-20.235460	-30.581542	147.953915	83.342328	8.765025	15.883115
2.780000	-0.874383	-4.541442	90.001278	0.226212	1.073897	0.432079	14.140549	-0.937214	2.664728	33.118146	0.578021	37.252444	3.358536	0.000000	14.223106	-3.503496	-10.268904	32.296464	0.563680	36.732907	6.345787	0.000000	0.178825	-0.124786	1.627912	0.332095	-0.165965	1.729657	0.293791	-0.303404	1.729657	0.204379	-0.303404	1.424423	0.166057	-0.254463	1.322679	0.102180	-0.193293	1.220934	1.277327	-1.411602	9.053960	0.000000	0.000000	15.547572	-0.293713	-10.186220	18.652512	-9.515742	-35.924154	149.624911	85.023741	25.799520	5.030936	18.672810	-20.271678	-30.602661	147.934005	82.966778	8.714696	15.864816
2.800000	-0.887715	-4.634317	90.021199	0.226034	1.074008	0.431951	14.211877	-0.977180	2.592659	33.118328	0.578024	37.227517	3.335833	0.000000	14.298772	-3.449160	-10.117229	32.310746	0.563929	36.542153	6.367848	0.000000	0.193654	-0.125658	1.584135	0.359635	-0.167125	1.683144	0.318154	-0.305524	1.683144	0.221327	-0.305524	1.386118	0.179827	-0.256241	1.287110	0.110654	-0.194644	1.188101	1.383252	-1.421466	8.810485	0.000000	0.000000	15.703342	-0.102841	-10.012567	18.774811	-9.646817	-35.422007	149.604213	84.985886	25.259105	5.755917	18.708828	-20.273365	-30.823661	147.904446	82.517842	8.765564	15.794319
2.820000	-0.898147	-4.710239	89.996526	0.225896	1.074055	0.431738	14.264965	-0.999751	2.575952	33.128461	0.578201	37.191101	3.266188	0.000000	14.338437	-3.404386	-10.005266	32.320538	0.564100	36.404044	6.402990	0.000000	0.205104	-0.124220	1.546964	0.380898	-0.165212	1.643650	0.336965	-0.302028	1.643650	0.234413	-0.302028	1.353594	0.190459	-0.253309	1.256909	0.117196	-0.192417	1.160223	1.465036	-1.405200	8.603752	0.000000	0.000000	15.864514	0.028164	-9.783966	18.844543	-9.775924	-34.860051	149.586738	84.913256	24.651991	6.467793	18.583786	-20.277116	-31.093214	147.833232	82.098177	8.784462	15.629849
2.840000	-0.899224	-4.762845	89.972826	0.225748	1.074055	0.431410	14.271841	-1.004444	2.593972	33.120644	0.578064	37.135946	3.112141	0.000000	14.338579	-3.353596	-9.835753	32.310052	0.563917	36.308463	6.361692	0.000000	0.213175	-0.119546	1.510585	0.395888	-0.158996	1.604996	0.350226	-0.290664	1.604996	0.243638	-0.290664	1.321762	0.197955	-0.243778	1.227350	0.121808	-0.185177	1.132939	1.522691	-1.352328	8.401419	0.000000	0.000000	16.033654	0.100471	-9.459286	18.881027	-9.896488	-34.294330	149.574567	84.805483	24.093324	7.118446	18.313311	-20.265345	-31.449739	147.739548	81.773414	8.874051	15.509128
2.860000	-0.907278	-4.773417	89.959847	0.225633	1.074047	0.430975	14.204867	-1.017713	2.597818	33.084873	0.577440	37.079481	2.952636	0.000000	14.267294	-3.300677	-9.697775	32.257074	0.562992	36.257365	6.374034	0.000000	0.214653	-0.116166	1.487902	0.398633	-0.154501	1.580896	0.352654	-0.282446	1.580896	0.245327	-0.282446	1.301914	0.199327	-0.236885	1.208920	0.122653	-0.179941	1.115926	1.533248	-1.314092	8.275263	0.000000	0.000000	16.195031	0.109131	-9.240872	18.860035	-10.017614	-33.839132	149.576292	84.725141	23.525338	7.572709	18.011698	-20.258072	-31.670552	147.573480	81.539640	8.860022	15.304533
2.880000	-0.938506	-4.769117	89.975817	0.225570	1.074071	0.430366	14.073644	-1.047819	2.624484	32.991919	0.575818	36.996372	2.713130	0.000000	14.128897	-3.216885	-9.540516	32.106930	0.560372	36.208508	6.381897	0.000000	0.213765	-0.117804	1.478643	0.396983	-0.156679	1.571058	0.351195	-0.286429	1.571058	0.244312	-0.286429	1.293812	0.198502	-0.240226	1.201397	0.122145	-0.182479	1.108982	1.526902	-1.332623	8.223767	0.000000	0.000000	16.378731	0.066412	-9.185753	18.774332	-10.115599	-33.583829	149.589363	84.722099	23.096339	7.684867	17.729890	-20.274190	-31.735777	147.358623	81.461905	8.816617	15.044770
2.900000	-0.975954	-4.736883	90.007316	0.225560	1.074203	0.429575	13.857234	-1.077356	2.681679	32.819476	0.572808	36.882301	2.434370	0.000000	13.888058	-3.128482	-9.425034	31.822812	0.555413	36.169362	6.459983	0.000000	0.208979	-0.121802	1.486480	0.388095	-0.161997	1.579385	0.343332	-0.296150	1.579385	0.238842	-0.296150	1.300670	0.194058	-0.248379	1.207765	0.119411	-0.188672	1.114860	1.492716	-1.377852	8.267356	0.000000	0.000000	16.552651	-0.036512	-9.288778	18.661587	-10.233455	-33.500391	149.633450	84.775861	22.682382	7.668693	17.523544	-20.300410	-31.574813	147.091858	81.515860	8.664132	14.717858
2.920000	-1.028751	-4.683570	90.081601	0.225570	1.074525	0.428555	13.542671	-1.134898	2.681147	32.529129	0.567740	36.746806	2.235283	0.000000	13.526030	-3.024018	-9.388443	31.348607	0.547136	36.106999	6.695896	0.000000	0.202390	-0.130020	1.509014	0.375858	-0.172927	1.603327	0.332506	-0.316131	1.603327	0.231311	-0.316131	1.320387	0.187939	-0.265137	1.226074	0.115646	-0.201401	1.131760	1.445650	-1.470814	8.392681	0.000000	0.000000	16.692611	-0.157723	-9.594428	18.515644	-10.378258	-33.588424	149.700465	84.882308	22.181461	7.548525	17.449793	-20.354331	-31.113067	146.783233	81.665216	8.343207	14.341795
2.940000	-1.073175	-4.609323	90.173894	0.225604	1.075118	0.427325	13.121427	-1.191466	2.643367	32.084879	0.559987	36.571198	2.137568	0.000000	13.025124	-2.927199	-9.456382	30.654111	0.535015	35.996738	7.097108	0.000000	0.194621	-0.138455	1.549142	0.361431	-0.184145	1.645963	0.319743	-0.336640	1.645963	0.222433	-0.336640	1.355499	0.180725	-0.282338	1.258678	0.111207	-0.214467	1.161856	1.390161	-1.566232	8.615861	0.000000	0.000000	16.782084	-0.305924	-10.058938	18.379783	-10.575681	-33.826054	149.781482	85.050635	21.572144	7.499305	17.542993	-20.408871	-30.368455	146.436302	81.882062	7.883751	13.896231
2.960000	-1.105516	-4.516077	90.300127	0.225616	1.076061	0.425909	12.580199	-1.254832	2.499888	31.448016	0.548871	36.353052	2.239565	0.000000	12.375835	-2.833146	-9.627228	29.709158	0.518523	35.796980	7.669925	0.000000	0.186357	-0.145485	1.593683	0.346084	-0.193495	1.693289	0.306166	-0.353732	1.693289	0.212988	-0.353732	1.394473	0.173051	-0.296673	1.294868	0.106485	-0.225356	1.195263	1.331131	-1.645756	8.863589	0.000000	0.000000	16.806076	-0.461819	-10.583904	18.289805	-10.826475	-34.078963	149.838008	85.215974	20.747627	7.635049	17.800551	-20.474185	-29.427452	146.080053	82.065874	7.284941	13.425644
2.980000	-1.101426	-4.404413	90.421894	0.225619	1.077425	0.424365	11.915022	-1.298788	2.251831	30.590796	0.533910	36.063791	2.601981	0.000000	11.569490	-2.767561	-9.946000	28.501111	0.497438	35.481900	8.424580	0.000000	0.177336	-0.146967	1.640003	0.329331	-0.195466	1.742504	0.291346	-0.357334	1.742504	0.202678	-0.357334	1.435003	0.164674	-0.299694	1.332503	0.101330	-0.227651	1.230003	1.266695	-1.662515	9.121207	0.000000	0.000000	16.757792	-0.639994	-11.087843	18.290252	-11.127110	-34.320393	149.819034	85.392331	19.839445	7.917149	18.213207	-20.536785	-28.390950	145.734362	82.230524	6.593121	12.885813
3.000000	-1.063909	-4.291017	90.572901	0.225555	1.079211	0.422764	11.138039	-1.330130	1.878585	29.502871	0.514922	35.684675	3.209185	0.000000	10.635357	-2.720406	-10.383872	27.042559	0.471982	35.030492	9.374158	0.000000	0.170003	-0.142633	1.663975	0.315713	-0.189701	1.767974	0.279298	-0.346797	1.767974	0.194296	-0.346797	1.455978	0.157865	-0.290856	1.351980	0.097140	-0.220938	1.247981	1.214315	-1.613488	9.254531	0.000000	0.000000	16.651264	-0.777293	-11.446503	18.421822	-11.437614	-34.401433	149.683362	85.603158	18.736542	8.448391	18.705965	-20.634479	-27.428161	145.452818	82.273299	5.825157	12.355867
3.020000	-0.984115	-4.172808	90.709452	0.225445	1.081406	0.421156	10.253129	-1.338650	1.436090	28.191393	0.492033	35.195909	4.034206	0.000000	9.570015	-2.685236	-10.787777	25.337932	0.442230	34.378789	10.249791	0.000000	0.163235	-0.130213	1.672770	0.303144	-0.173183	1.777319	0.268179	-0.316599	1.777319	0.186562	-0.316599	1.463674	0.151580	-0.265530	1.359126	0.093273	-0.201699	1.254578	1.165973	-1.472992	9.303447	0.000000	0.000000	16.505664	-0.913240	-11.613991	18.675240	-11.771199	-34.310696	149.416265	85.868565	17.470853	9.103554	19.251098	-20.738250	-26.602104	145.235430	82.016762	5.046951	11.839548
3.040000	-0.869140	-4.065078	90.868373	0.225264	1.083957	0.419569	9.270629	-1.330984	0.868570	26.657937	0.465269	34.576790	5.093609	0.000000	8.418331	-2.665521	-11.263231	23.442504	0.409149	33.533047	11.251796	0.000000	0.158823	-0.109773	1.652887	0.294951	-0.145998	1.756192	0.260931	-0.266903	1.756192	0.181519	-0.266903	1.446276	0.147483	-0.223850	1.342970	0.090752	-0.170039	1.239665	1.134459	-1.241777	9.192859	0.000000	0.000000	16.350323	-1.041363	-11.449049	19.063552	-12.086334	-34.003373	149.019234	86.169879	16.147557	9.889827	19.775086	-20.862015	-26.065443	145.116786	81.627645	4.280491	11.304500
